<?xml version="1.0" standalone="no"?>
<!DOCTYPE svg PUBLIC "-//W3C//DTD SVG 20010904//EN"
 "http://www.w3.org/TR/2001/REC-SVG-20010904/DTD/svg10.dtd">
<svg version="1.0" xmlns="http://www.w3.org/2000/svg"
 width="512.000000pt" height="512.000000pt" viewBox="0 0 512.000000 512.000000"
 preserveAspectRatio="xMidYMid meet">

<g transform="translate(0.000000,512.000000) scale(0.100000,-0.100000)"
fill="#ff0000" stroke="none">
<path d="M4632 4836 c-23 -8 -68 -34 -100 -58 -80 -61 -285 -267 -366 -368
l-68 -84 -126 2 c-181 4 -288 -28 -405 -122 -45 -36 -113 -133 -122 -175 -6
-26 -14 -32 -75 -50 -371 -113 -657 -423 -739 -801 -6 -25 -35 -231 -66 -458
-60 -444 -69 -496 -117 -642 -185 -569 -672 -999 -1267 -1121 -153 -32 -378
-35 -685 -10 -317 26 -311 26 -336 1 -34 -34 -25 -69 34 -136 217 -243 551
-430 901 -505 142 -30 498 -37 714 -15 383 41 738 141 1076 305 360 174 609
352 895 640 169 170 295 323 406 491 122 186 446 734 476 803 60 141 81 246
81 412 1 166 -14 257 -62 381 -25 63 -26 73 -14 90 34 45 64 118 75 184 22
131 -26 290 -125 412 l-46 56 63 74 c63 73 103 112 230 222 108 94 140 192
100 308 -44 130 -200 207 -332 164z m175 -170 c56 -61 42 -144 -34 -201 -162
-122 -355 -344 -355 -409 0 -16 19 -47 56 -88 32 -35 74 -96 94 -137 34 -69
37 -82 37 -160 0 -52 -5 -95 -13 -109 -13 -22 -14 -22 -56 35 -65 88 -202 213
-296 271 -155 96 -324 147 -526 160 l-119 7 39 43 c80 88 239 134 392 113 133
-19 123 -23 215 92 91 113 319 346 389 396 40 29 51 32 94 28 41 -4 55 -11 83
-41z m-1022 -787 c524 -64 898 -554 814 -1069 -25 -156 -62 -236 -272 -584
-311 -519 -415 -663 -640 -889 -506 -509 -1145 -818 -1862 -902 -174 -20 -519
-20 -645 0 -245 40 -471 136 -672 285 -129 95 -136 105 -77 97 231 -32 564
-32 739 -2 486 86 924 374 1204 794 114 171 220 426 260 626 9 44 41 265 71
490 31 226 65 444 76 485 95 351 418 627 779 669 108 12 125 12 225 0z"/>
<path d="M3713 3620 c-258 -27 -488 -193 -604 -435 -38 -79 -73 -201 -61 -209
4 -2 34 -7 68 -11 l60 -7 18 64 c29 105 83 195 166 278 106 106 230 166 383
184 l57 7 0 70 c0 38 -3 68 -7 68 -5 -1 -40 -5 -80 -9z"/>
</g>
</svg>
