<?xml version="1.0" standalone="no"?>
<!DOCTYPE svg PUBLIC "-//W3C//DTD SVG 20010904//EN"
 "http://www.w3.org/TR/2001/REC-SVG-20010904/DTD/svg10.dtd">
<svg version="1.0" xmlns="http://www.w3.org/2000/svg"
 width="512.000000pt" height="512.000000pt" viewBox="0 0 512.000000 512.000000"
 preserveAspectRatio="xMidYMid meet">

<g transform="translate(0.000000,512.000000) scale(0.100000,-0.100000)"
fill="#0000ff" stroke="none">
<path d="M2315 5020 c-394 -83 -735 -356 -886 -710 l-27 -65 -439 -6 c-415 -5
-441 -6 -504 -27 -160 -53 -292 -180 -352 -339 l-22 -58 -3 -1643 -2 -1643 25
-75 c59 -177 192 -304 374 -358 49 -14 246 -16 2084 -16 l2028 0 76 25 c176
59 304 194 357 376 15 49 16 217 14 1694 l-3 1640 -22 58 c-59 157 -194 286
-352 339 -63 21 -89 22 -504 27 l-439 6 -24 57 c-155 368 -517 653 -918 723
-125 21 -345 19 -461 -5z m442 -145 c407 -77 733 -373 847 -769 110 -378 2
-793 -279 -1071 -136 -134 -308 -233 -493 -282 -86 -23 -117 -27 -267 -27
-193 -1 -277 15 -435 83 -438 189 -706 649 -650 1116 58 479 405 856 876 949
95 19 303 19 401 1z m-1411 -816 c-117 -586 201 -1182 748 -1399 256 -102 547
-118 806 -43 388 112 703 412 831 792 70 206 85 438 43 650 l-6 31 363 0 c200
0 390 -4 422 -10 131 -21 242 -102 300 -219 l32 -66 0 -1640 0 -1640 -29 -60
c-38 -77 -114 -153 -191 -191 l-60 -29 -2045 0 -2045 0 -60 29 c-77 38 -153
114 -191 191 l-29 60 0 1640 0 1640 27 57 c53 115 173 207 294 227 27 5 217 9
423 10 l374 1 -7 -31z"/>
<path d="M2509 4751 c-23 -18 -24 -25 -24 -141 0 -121 0 -122 28 -146 15 -13
37 -24 47 -24 10 0 32 11 47 24 28 24 28 25 28 146 0 116 -1 123 -24 141 -13
10 -36 19 -51 19 -15 0 -38 -9 -51 -19z"/>
<path d="M2060 4630 c-32 -32 -24 -66 37 -171 63 -109 86 -126 140 -104 31 13
43 32 43 66 0 22 -82 172 -113 207 -26 28 -79 30 -107 2z"/>
<path d="M2953 4628 c-32 -36 -113 -183 -113 -206 0 -35 12 -54 43 -67 54 -22
77 -5 140 104 31 54 57 107 57 118 0 63 -85 97 -127 51z"/>
<path d="M1735 4305 c-28 -28 -32 -61 -10 -92 23 -33 187 -123 223 -123 56 0
89 60 62 110 -13 24 -199 130 -229 130 -12 0 -33 -11 -46 -25z"/>
<path d="M3220 4275 c-52 -30 -101 -62 -107 -72 -35 -46 1 -113 60 -113 41 1
207 97 226 132 19 32 1 80 -35 97 -37 16 -41 15 -144 -44z"/>
<path d="M2761 4117 l-116 -114 -38 10 c-57 14 -121 0 -170 -36 -125 -95 -113
-281 23 -357 85 -47 200 -25 263 49 37 44 50 95 44 165 l-6 61 110 112 c97 99
109 115 109 146 0 26 -7 41 -26 56 -49 39 -68 30 -193 -92z m-163 -263 c46
-32 20 -107 -38 -107 -38 0 -60 23 -60 64 0 29 31 59 60 59 9 0 26 -7 38 -16z"/>
<path d="M1619 3861 c-17 -13 -23 -29 -23 -56 0 -64 25 -75 163 -75 75 1 122
5 132 13 26 20 40 55 33 82 -12 46 -38 55 -165 55 -99 0 -120 -3 -140 -19z"/>
<path d="M3219 3861 c-17 -13 -23 -29 -23 -56 0 -63 25 -75 159 -75 62 0 121
3 130 6 24 10 46 60 39 89 -12 46 -38 55 -165 55 -99 0 -120 -3 -140 -19z"/>
<path d="M1845 3480 c-133 -74 -157 -109 -114 -164 30 -39 68 -34 163 20 45
26 91 56 104 67 27 25 29 67 5 95 -34 39 -61 36 -158 -18z"/>
<path d="M3126 3507 c-36 -36 -35 -78 4 -110 50 -43 176 -107 208 -107 21 0
37 8 51 26 42 54 19 91 -101 159 -107 60 -129 65 -162 32z"/>
<path d="M683 3842 c-99 -35 -161 -93 -206 -190 l-22 -47 0 -1435 0 -1435 32
-67 c40 -84 97 -141 181 -181 l67 -32 1820 0 c1765 0 1822 1 1870 19 115 44
190 123 225 236 20 64 20 85 18 1485 l-3 1420 -28 56 c-31 64 -93 126 -159
160 -30 16 -66 24 -123 27 -98 5 -170 -19 -237 -77 -62 -55 -94 -120 -121
-252 -57 -265 -155 -468 -325 -672 -209 -251 -529 -433 -867 -493 -134 -23
-356 -23 -490 0 -463 82 -856 375 -1064 793 -60 120 -95 223 -126 370 -13 61
-33 130 -45 153 -71 138 -254 213 -397 162z m165 -147 c79 -34 101 -69 131
-213 134 -631 619 -1115 1254 -1254 89 -19 131 -22 327 -22 195 0 238 3 323
22 503 112 908 427 1126 876 61 126 95 226 131 384 22 100 33 129 56 154 35
37 98 68 139 68 73 0 154 -65 175 -138 6 -25 10 -494 10 -1403 0 -1517 4
-1428 -67 -1501 -71 -73 62 -68 -1893 -68 -1955 0 -1822 -5 -1893 68 -71 73
-67 -17 -67 1511 0 1318 1 1378 19 1416 44 95 140 137 229 100z"/>
</g>
</svg>
